# xmcd CD database file
#
# Track frame offsets:
#	150
#	30792
#	48901
#	61769
#	84214
#	97438
#	146542
#
# Disc length: 2246 seconds
#
# Revision: 0
# Processed by: cddbd v1.5.2PL0 Copyright (c) Steve Scherf et al.
# Submitted via: CDex 1.79
#
DISCID=4e08c407
DTITLE=Brother Grimm - King for a day, cool for a lifetime
DYEAR=2016
DGENRE=Blues
TTITLE0=Woman
TTITLE1=Moonsong
TTITLE2=I'm afraid of Germany
TTITLE3=brothers and sisters
TTITLE4=birdsong
TTITLE5=take yr idols and turn them into flowers
TTITLE6=king for a day, cool for a lifetime
EXTD=YEAR: 2016
EXTT0=
EXTT1=
EXTT2=
EXTT3=
EXTT4=
EXTT5=
EXTT6=
PLAYORDER=
